#!OML:ASF H:\GeneralSubjects\Female5\Project 1\Capture day 1\Session 1\Female5.ASF
:FULLY-SPECIFIED
:DEGREES
496
root 26.8968 15.9835 8.88629 11.4192 104.036 -4.14431
lowerback 8.79001 -0.191975 -1.41784
upperback -7.81474 0.134225 3.36541
thorax -13.5557 0.502167 4.47752
lowerneck -8.51527 -2.48085 -1.09162
upperneck 46.3106 4.32263 -7.54435
head 19.6535 1.89512 -2.32746
rclavicle 2.26118e-014 3.73715e-014
rhumerus -49.6629 26.3522 -83.2907
rradius 46.3414
rwrist -10.7878
rhand -24.6088 -20.6768
rfingers 7.12502
rthumb 1.88937 -50.6482
lclavicle 2.26118e-014 3.73715e-014
lhumerus -41.9028 5.79303 79.3719
lradius 34.1518
lwrist -17.514
lhand -25.0957 28.7977
lfingers 7.12502
lthumb 1.41915 58.7727
rfemur -18.3552 28.0817 20.2915
rtibia -3.39126
rfoot -17.8966 -29.0283
rtoes -5.071
lfemur -2.25943 -9.4784 -24.1759
ltibia 28.3026
lfoot -2.91725 10.2487
ltoes -15.8321
497
root 27.0683 15.9778 8.9232 14.0084 104.678 -1.35824
lowerback 8.87481 -0.232149 -0.900895
upperback -7.80559 0.203724 3.64516
thorax -13.605 0.508988 4.48288
lowerneck -8.45972 -2.44179 -1.20615
upperneck 46.3241 4.54477 -7.68971
head 19.6767 1.96248 -2.33566
rclavicle 7.35503e-015 5.725e-014
rhumerus -49.0288 27.3459 -83.005
rradius 47.2769
rwrist -10.3192
rhand -24.5494 -20.5025
rfingers 7.12502
rthumb 1.94679 -50.4734
lclavicle 7.35503e-015 5.725e-014
lhumerus -42.2683 6.6141 78.5418
lradius 33.9782
lwrist -17.5986
lhand -25.2528 29.5596
lfingers 7.12502
lthumb 1.26744 59.5356
rfemur -17.0648 27.322 22.127
rtibia -3.74341
rfoot -17.209 -28.4786
rtoes -5.1313
lfemur -4.74943 -8.14062 -22.6072
ltibia 32.8681
lfoot -3.77741 10.4956
ltoes -18.6263
498
root 27.2322 15.9648 8.95794 16.4261 105.291 1.23773
lowerback 8.95097 -0.249924 -0.430952
upperback -7.79617 0.301026 3.93705
thorax -13.6525 0.535032 4.52289
lowerneck -8.43751 -2.41374 -1.32787
upperneck 46.3679 4.75076 -7.81524
head 19.7291 2.02439 -2.33692
rclavicle 2.48481e-014 -1.59028e-014
rhumerus -48.1775 28.1637 -82.4718
rradius 47.9639
rwrist -10.0422
rhand -24.5547 -20.4113
rfingers 7.12502
rthumb 1.94162 -50.3822
lclavicle 2.48481e-014 -1.59028e-014
lhumerus -42.7326 7.43822 77.6767
lradius 33.9622
lwrist -17.5481
lhand -25.3022 30.5428
lfingers 7.12502
lthumb 1.21974 60.5191
rfemur -16.0118 26.5751 23.8411
rtibia -3.92897
rfoot -15.9239 -28.2204
rtoes -7.56504
lfemur -7.46212 -6.88764 -21.21
ltibia 37.4954
lfoot -5.54647 9.99167
ltoes -21.5943
499
root 27.39 15.9479 8.99075 18.498 105.864 3.47408
lowerback 9.03011 -0.243785 -0.0828915
upperback -7.77605 0.413135 4.2294
thorax -13.6923 0.579832 4.62976
lowerneck -8.45455 -2.39478 -1.45438
upperneck 46.4286 4.93276 -7.91145
head 19.8017 2.07779 -2.32789
rclavicle 1.32689e-014 -2.06736e-014
rhumerus -47.1042 28.7832 -81.703
rradius 48.3921
rwrist -9.9328
rhand -24.6132 -20.4013
rfingers 7.12502
rthumb 1.88516 -50.3727
lclavicle 1.32689e-014 -2.06736e-014
lhumerus -43.2912 8.29347 76.794
lradius 34.068
lwrist -17.4312
lhand -25.4141 31.3998
lfingers 7.12502
lthumb 1.11166 61.3766
rfemur -15.1446 25.8158 25.3933
rtibia -3.96878
rfoot -14.4123 -28.043
rtoes -11.4106
lfemur -10.3079 -5.7691 -20.069
ltibia 41.9375
lfoot -8.22509 8.85337
ltoes -24.2923
500
root 27.5432 15.9307 9.02183 20.1053 106.382 5.23544
lowerback 9.1201 -0.213545 0.084856
upperback -7.73865 0.527229 4.50793
thorax -13.721 0.641304 4.8235
lowerneck -8.51311 -2.38157 -1.58158
upperneck 46.5023 5.08569 -7.96424
head 19.8907 2.12216 -2.30296
rclavicle -4.26393e-014 -4.29375e-014
rhumerus -45.8286 29.1924 -80.7377
rradius 48.5758
rwrist -9.95697
rhand -24.7213 -20.4786
rfingers 7.12502
rthumb 1.78077 -50.4509
lclavicle -4.26393e-014 -4.29375e-014
lhumerus -43.9254 9.17656 75.9074
lradius 34.2422
lwrist -17.3007
lhand -25.6778 31.8766
lfingers 7.12502
lthumb 0.856919 61.8546
rfemur -14.3884 25.0683 26.7507
rtibia -3.92536
rfoot -13.2227 -27.7738
rtoes -14.904
lfemur -13.1926 -4.8538 -19.2396
ltibia 45.9445
lfoot -11.5663 7.30035
ltoes -26.2702
501
root 27.6933 15.9163 9.05073 21.2117 106.834 6.49056
lowerback 9.22568 -0.160442 0.0570185
upperback -7.68153 0.635556 4.75849
thorax -13.7383 0.71574 5.09879
lowerneck -8.60329 -2.37465 -1.68882
upperneck 46.5792 5.21112 -7.99723
head 19.988 2.1591 -2.27715
rclavicle -2.73826e-014 -4.13472e-014
rhumerus -44.4012 29.4085 -79.6453
rradius 48.551
rwrist -10.1017
rhand -24.877 -20.655
rfingers 7.12502
rthumb 1.63031 -50.6286
lclavicle -2.73826e-014 -4.13472e-014
lhumerus -44.5993 10.0622 75.0321
lradius 34.411
lwrist -17.2048
lhand -26.1185 31.896
lfingers 7.12502
lthumb 0.431325 61.8753
rfemur -13.6311 24.062 27.9868
rtibia -3.89338
rfoot -12.566 -27.0809
rtoes -16.9276
lfemur -16.0195 -4.21041 -18.731
ltibia 49.2813
lfoot -15.0929 5.55188
ltoes -27.3885
502
root 27.841 15.9067 9.07712 21.8531 107.226 7.26761
lowerback 9.33877 -0.0885444 -0.153247
upperback -7.60878 0.733039 4.97615
thorax -13.744 0.798962 5.44402
lowerneck -8.69965 -2.3733 -1.76812
upperneck 46.6366 5.31347 -8.03584
head 20.0717 2.18933 -2.26301
rclavicle -3.4837e-014 3.18055e-015
rhumerus -42.887 29.4771 -78.4941
rradius 48.3694
rwrist -10.3614
rhand -25.0698 -20.9066
rfingers 7.12502
rthumb 1.44411 -50.8815
lclavicle -3.4837e-014 3.18055e-015
lhumerus -45.266 10.9054 74.1994
lradius 34.4927
lwrist -17.1923
lhand -26.6931 31.4975
lfingers 7.12502
lthumb -0.123664 61.4772
rfemur -12.8893 23.2403 28.986
rtibia -3.87808
rfoot -12.7669 -26.3839
rtoes -16.8313
lfemur -18.734 -3.86644 -18.5104
ltibia 51.7737
lfoot -18.2666 3.75365
ltoes -27.8285
503
root 27.986 15.9025 9.10083 22.165 107.586 7.69465
lowerback 9.45466 -0.00812425 -0.489692
upperback -7.52795 0.816224 5.16945
thorax -13.7439 0.884926 5.83796
lowerneck -8.7716 -2.37382 -1.82061
upperneck 46.658 5.40291 -8.09702
head 20.1228 2.21584 -2.26628
rclavicle 2.77305e-014 0
rhumerus -41.352 29.4556 -77.3424
rradius 48.0968
rwrist -10.7115
rhand -25.2851 -21.1878
rfingers 7.12502
rthumb 1.23625 -51.1639
lclavicle 2.77305e-014 0
lhumerus -45.9053 11.641 73.4557
lradius 34.4672
lwrist -17.2666
lhand -27.3076 30.8063
lfingers 7.12502
lthumb -0.717214 60.7849
rfemur -12.1589 22.629 29.7904
rtibia -3.90026
rfoot -13.4695 -25.7915
rtoes -15.4648
lfemur -21.336 -3.82675 -18.4865
ltibia 53.373
lfoot -20.6509 1.97919
ltoes -27.7964
